<?xml version="1.0" encoding="utf-8"?>
<!-- Generator: Adobe Illustrator 24.2.1, SVG Export Plug-In . SVG Version: 6.00 Build 0)  -->
<svg version="1.1" id="sf-fog" xmlns="http://www.w3.org/2000/svg" xmlns:xlink="http://www.w3.org/1999/xlink" x="0px" y="0px"
	 viewBox="0 0 800 600" style="enable-background:new 0 0 800 600;" xml:space="preserve">
<style type="text/css">
	.st0{clip-path:url(#SVGID_2_);}
	.st1{fill:#333333;}
	.st2{fill:#C34E1E;}
	.st3{fill:none;stroke:#333333;stroke-width:1.5;stroke-linecap:round;stroke-linejoin:round;stroke-miterlimit:10;}
	.st4{fill:none;stroke:#333333;stroke-width:2.5;stroke-linecap:round;stroke-linejoin:round;stroke-miterlimit:10;}
	.st5{fill:#C34E1E;stroke:#333333;stroke-width:2.5;stroke-linecap:round;stroke-linejoin:round;stroke-miterlimit:10;}
	.st6{fill:none;stroke:#333333;stroke-width:2;stroke-linecap:round;stroke-linejoin:round;stroke-miterlimit:10;}
	.st7{fill:none;stroke:#333333;stroke-width:3;stroke-linecap:round;stroke-linejoin:round;stroke-miterlimit:10;}
	.st8{fill:#C34E1E;stroke:#333333;stroke-width:3;stroke-linecap:round;stroke-linejoin:round;stroke-miterlimit:10;}
	.st9{clip-path:url(#SVGID_4_);}
	.st10{clip-path:url(#SVGID_6_);}
	.st11{fill:#FFFFFF;}
	.st12{clip-path:url(#SVGID_8_);fill:#FFFFFF;}
	.st13{clip-path:url(#SVGID_8_);}
</style>
<g>
	<g>
		<g>
			<defs>
				<rect id="SVGID_1_" y="7" width="800" height="587.1"/>
			</defs>
			<clipPath id="SVGID_2_">
				<use xlink:href="#SVGID_1_"  style="overflow:visible;"/>
			</clipPath>
			<g class="st0">
				<g>
					<g>
						<g>
							<path class="st1" d="M708.1,490.9c-0.5,0-0.9-0.2-1.2-0.6c-39.2-53.7-48.9-183.3-49-184.6c-0.1-0.8,0.6-1.5,1.4-1.6
								c0.8-0.1,1.5,0.6,1.6,1.4c0.1,1.3,9.7,130,48.3,183c0.5,0.7,0.3,1.6-0.3,2.1C708.7,490.8,708.4,490.9,708.1,490.9z"/>
						</g>
						<g>
							<g>
								<path class="st1" d="M712.5,491.1c-0.3,0-0.5-0.2-0.5-0.5v-91c0-0.3,0.2-0.5,0.5-0.5s0.5,0.2,0.5,0.5v91
									C713,490.9,712.8,491.1,712.5,491.1z"/>
							</g>
							<g>
								<path class="st1" d="M724.3,494.5c-0.3,0-0.5-0.2-0.5-0.5v-56.8c0-0.3,0.2-0.5,0.5-0.5s0.5,0.2,0.5,0.5V494
									C724.8,494.3,724.6,494.5,724.3,494.5z"/>
							</g>
						</g>
						<g>
							<path class="st1" d="M760.1,507.2c-0.4,0-0.8-0.2-1.1-0.5c-21.8-22.7-39.1-74-49.7-113.1c-11.6-42.5-18.6-82.4-18.8-87.9
								c0-0.8,0.6-1.5,1.4-1.6c0.8,0,1.5,0.6,1.6,1.4c0.3,7.2,26.2,156,67.7,199.1c0.6,0.6,0.6,1.5,0,2.1
								C760.9,507.1,760.5,507.2,760.1,507.2z"/>
						</g>
					</g>
					<g>
						<g>
							<path class="st1" d="M659.4,307.1c-0.8,0-1.5-0.7-1.5-1.5v-7.1c0-0.8,0.7-1.5,1.5-1.5s1.5,0.7,1.5,1.5v7.1
								C660.9,306.5,660.3,307.1,659.4,307.1z"/>
						</g>
						<g>
							<path class="st1" d="M692,307.1c-0.8,0-1.5-0.7-1.5-1.5v-7.1c0-0.8,0.7-1.5,1.5-1.5s1.5,0.7,1.5,1.5v7.1
								C693.5,306.5,692.8,307.1,692,307.1z"/>
						</g>
						<path class="st2" d="M649.9,430v-48.1h3.1v-37.6h3.1v-39.5h6.7v3.4h25.8v-3.4h6.7v39.5h3.1v37.6h3.1V430h3.1v128.5H647V430
							H649.9z M689.3,319.7c0-2.8-2.3-5.1-5.1-5.1h-16.9c-2.8,0-5.1,2.3-5.1,5.1v19.5c0,2.8,2.3,5.1,5.1,5.1h16.9
							c2.8,0,5.1-2.3,5.1-5.1V319.7z M692.1,357.3c0-2.8-2.3-5.1-5.1-5.1h-22.7c-2.8,0-5.1,2.3-5.1,5.1v19.5c0,2.8,2.3,5.1,5.1,5.1
							H687c2.8,0,5.1-2.3,5.1-5.1V357.3z M694.8,394.9c0-2.8-2.3-5.1-5.1-5.1h-28.1c-2.8,0-5.1,2.3-5.1,5.1v30
							c0,2.8,2.3,5.1,5.1,5.1h28.1c2.8,0,5.1-2.3,5.1-5.1V394.9z M663.9,546.8h23.6v-49.3h-23.6V546.8z M653.7,480.5
							c0,2.8,2.3,5.1,5.1,5.1h33.9c2.8,0,5.1-2.3,5.1-5.1v-36.8c0-2.8-2.3-5.1-5.1-5.1h-33.9c-2.8,0-5.1,2.3-5.1,5.1V480.5z"/>
						<rect x="663.9" y="497.5" class="st3" width="23.6" height="49.3"/>
						<polygon class="st4" points="649.9,430 649.9,381.9 653,381.9 653,344.3 656,344.3 656,304.8 662.8,304.8 662.8,308.2
							688.6,308.2 688.6,304.8 695.4,304.8 695.4,344.3 698.4,344.3 698.4,381.9 701.5,381.9 701.5,430 704.5,430 704.5,558.5
							646.9,558.5 646.9,430 						"/>
						<g>
							<g>
								<path class="st1" d="M663.9,522.9c-0.2,0-0.4-0.1-0.5-0.2c-0.3-0.3-0.3-0.8,0-1.1L687,497c0.3-0.3,0.8-0.3,1.1,0
									s0.3,0.8,0,1.1l-23.6,24.7C664.3,522.9,664.1,522.9,663.9,522.9z"/>
							</g>
							<g>
								<path class="st1" d="M687.5,522.9c-0.2,0-0.4-0.1-0.5-0.2L663.3,498c-0.3-0.3-0.3-0.8,0-1.1c0.3-0.3,0.8-0.3,1.1,0
									l23.6,24.7c0.3,0.3,0.3,0.8,0,1.1C687.9,522.9,687.7,522.9,687.5,522.9z"/>
							</g>
							<g>
								<path class="st1" d="M687.5,522.9h-23.6c-0.4,0-0.8-0.3-0.8-0.8c0-0.4,0.3-0.8,0.8-0.8h23.6c0.4,0,0.8,0.3,0.8,0.8
									C688.3,522.6,687.9,522.9,687.5,522.9z"/>
							</g>
							<g>
								<path class="st1" d="M687.5,547.6c-0.2,0-0.4-0.1-0.5-0.2l-23.6-24.7c-0.3-0.3-0.3-0.8,0-1.1s0.8-0.3,1.1,0l23.6,24.7
									c0.3,0.3,0.3,0.8,0,1.1C687.9,547.5,687.7,547.6,687.5,547.6z"/>
							</g>
							<g>
								<path class="st1" d="M663.9,547.6c-0.2,0-0.4-0.1-0.5-0.2c-0.3-0.3-0.3-0.8,0-1.1l23.6-24.7c0.3-0.3,0.8-0.3,1.1,0
									s0.3,0.8,0,1.1l-23.6,24.7C664.3,547.5,664.1,547.6,663.9,547.6z"/>
							</g>
						</g>
						<rect x="641.8" y="558.4" class="st5" width="67.8" height="13.6"/>
						<g>
							<path class="st3" d="M662.1,319.7c0-2.8,2.3-5.1,5.1-5.1h16.9c2.8,0,5.1,2.3,5.1,5.1v19.5c0,2.8-2.3,5.1-5.1,5.1h-16.9
								c-2.8,0-5.1-2.3-5.1-5.1V319.7z"/>
						</g>
						<g>
							<path class="st3" d="M659.3,357.3c0-2.8,2.3-5.1,5.1-5.1H687c2.8,0,5.1,2.3,5.1,5.1v19.5c0,2.8-2.3,5.1-5.1,5.1h-22.7
								c-2.8,0-5.1-2.3-5.1-5.1L659.3,357.3L659.3,357.3z"/>
						</g>
						<g>
							<path class="st3" d="M656.5,394.9c0-2.8,2.3-5.1,5.1-5.1h28.1c2.8,0,5.1,2.3,5.1,5.1v30c0,2.8-2.3,5.1-5.1,5.1h-28.1
								c-2.8,0-5.1-2.3-5.1-5.1V394.9z"/>
						</g>
						<g>
							<path class="st3" d="M653.7,443.7c0-2.8,2.3-5.1,5.1-5.1h33.9c2.8,0,5.1,2.3,5.1,5.1v36.8c0,2.8-2.3,5.1-5.1,5.1h-33.9
								c-2.8,0-5.1-2.3-5.1-5.1V443.7z"/>
						</g>
					</g>
					<g>
						<g>
							<path class="st1" d="M542.5,459.5c-4.4,0-8.8-0.4-13.4-1.2c-52-8.9-105.5-88.1-141.2-153c-41.1-74.8-70.9-152.1-77-175
								c-0.2-0.8,0.3-1.6,1.1-1.8c0.8-0.2,1.6,0.3,1.8,1.1c6.1,22.8,35.7,99.7,76.7,174.3c35.4,64.3,88.2,142.8,139,151.4
								c39.4,6.7,72.9-16.4,99.7-68.7c20.1-39.2,28.5-81,28.6-81.4c0.2-0.8,1-1.3,1.8-1.2c0.8,0.2,1.3,1,1.2,1.8
								c-0.1,0.4-8.6,42.6-28.9,82.2c-12,23.3-25.6,41.3-40.6,53.3C576.4,453.4,560,459.5,542.5,459.5z"/>
						</g>
						<g>
							<g>
								<path class="st1" d="M417.3,431c-0.3,0-0.5-0.2-0.5-0.5v-179c0-0.3,0.2-0.5,0.5-0.5s0.5,0.2,0.5,0.5v179
									C417.8,430.7,417.6,431,417.3,431z"/>
							</g>
							<g>
								<path class="st1" d="M439.2,434.4c-0.3,0-0.5-0.2-0.5-0.5V294.2c0-0.3,0.2-0.5,0.5-0.5s0.5,0.2,0.5,0.5v139.7
									C439.7,434.2,439.5,434.4,439.2,434.4z"/>
							</g>
							<g>
								<path class="st1" d="M461.2,437.8c-0.3,0-0.5-0.2-0.5-0.5V333.1c0-0.3,0.2-0.5,0.5-0.5s0.5,0.2,0.5,0.5v104.2
									C461.7,437.6,461.4,437.8,461.2,437.8z"/>
							</g>
							<g>
								<path class="st1" d="M483.1,441.4c-0.3,0-0.5-0.2-0.5-0.5v-72.8c0-0.3,0.2-0.5,0.5-0.5s0.5,0.2,0.5,0.5v72.8
									C483.6,441.2,483.4,441.4,483.1,441.4z"/>
							</g>
							<g>
								<path class="st1" d="M505,445.2c-0.3,0-0.5-0.2-0.5-0.5v-45.8c0-0.3,0.2-0.5,0.5-0.5s0.5,0.2,0.5,0.5v45.8
									C505.5,445,505.3,445.2,505,445.2z"/>
							</g>
							<g>
								<path class="st1" d="M527,449.2c-0.3,0-0.5-0.2-0.5-0.5v-23.9c0-0.3,0.2-0.5,0.5-0.5s0.5,0.2,0.5,0.5v23.9
									C527.5,448.9,527.2,449.2,527,449.2z"/>
							</g>
							<g>
								<path class="st1" d="M548.9,453.2c-0.3,0-0.5-0.2-0.5-0.5v-8.2c0-0.3,0.2-0.5,0.5-0.5s0.5,0.2,0.5,0.5v8.2
									C549.4,453,549.2,453.2,548.9,453.2z"/>
							</g>
							<g>
								<path class="st1" d="M582.6,459.9c-0.3,0-0.5-0.2-0.5-0.5v-13.5c0-0.3,0.2-0.5,0.5-0.5s0.5,0.2,0.5,0.5v13.5
									C583.1,459.7,582.9,459.9,582.6,459.9z"/>
							</g>
							<g>
								<path class="st1" d="M599.5,463.5c-0.3,0-0.5-0.2-0.5-0.5v-30.8c0-0.3,0.2-0.5,0.5-0.5s0.5,0.2,0.5,0.5V463
									C600,463.2,599.8,463.5,599.5,463.5z"/>
							</g>
							<g>
								<path class="st1" d="M616.4,467.1c-0.3,0-0.5-0.2-0.5-0.5v-55c0-0.3,0.2-0.5,0.5-0.5s0.5,0.2,0.5,0.5v55
									C616.9,466.9,616.6,467.1,616.4,467.1z"/>
							</g>
							<g>
								<path class="st1" d="M633.2,470.9c-0.3,0-0.5-0.2-0.5-0.5v-88.1c0-0.3,0.2-0.5,0.5-0.5s0.5,0.2,0.5,0.5v88.1
									C633.7,470.7,633.5,470.9,633.2,470.9z"/>
							</g>
							<g>
								<path class="st1" d="M395.4,427.7c-0.3,0-0.5-0.2-0.5-0.5V204.6c0-0.3,0.2-0.5,0.5-0.5s0.5,0.2,0.5,0.5v222.6
									C395.9,427.5,395.7,427.7,395.4,427.7z"/>
							</g>
						</g>
						<g>
							<path class="st1" d="M587.2,460.8c-3.4,0-6.9-0.3-10.4-1c-43.8-8.2-95.7-86.8-131.4-151.2c-41.1-74.1-73.6-152.3-80.4-178.1
								c-0.2-0.8,0.3-1.6,1.1-1.8c0.8-0.2,1.6,0.3,1.8,1.1c6.7,25.6,39.1,103.6,80.1,177.4c35.5,63.9,86.7,141.7,129.4,149.7
								c17.8,3.3,34.8-2.4,50.6-17.1c12.7-11.9,24.6-29.6,35.4-52.7c18.4-39.4,27.1-81.2,27.2-81.7c0.2-0.8,1-1.3,1.8-1.2
								c0.8,0.2,1.3,1,1.2,1.8c-0.1,0.4-8.9,42.6-27.4,82.3c-10.9,23.4-23.1,41.5-36.1,53.6C616.6,454.4,602.2,460.8,587.2,460.8z"
								/>
						</g>
					</g>
					<g>
						<g>
							<path class="st1" d="M312.5,131.6c-0.8,0-1.5-0.7-1.5-1.5v-11.8c0-0.8,0.7-1.5,1.5-1.5s1.5,0.7,1.5,1.5v11.8
								C314,130.9,313.3,131.6,312.5,131.6z"/>
						</g>
						<g>
							<path class="st1" d="M366.4,131.6c-0.8,0-1.5-0.7-1.5-1.5v-11.8c0-0.8,0.7-1.5,1.5-1.5s1.5,0.7,1.5,1.5v11.8
								C367.9,130.9,367.3,131.6,366.4,131.6z"/>
						</g>
						<path class="st2" d="M296.7,336.4v-79.9h5.1v-62.4h5.1v-65.5H318v5.6h42.9v-5.6h11.2v65.5h5.1v62.4h5.1v79.9h5.1v213.1h-95.6
							V336.4H296.7z M361.9,153.4c0-4.6-3.8-8.4-8.4-8.4h-28.1c-4.6,0-8.4,3.8-8.4,8.4v32.3c0,4.6,3.8,8.4,8.4,8.4h28.1
							c4.6,0,8.4-3.8,8.4-8.4V153.4z M366.7,215.8c0-4.6-3.8-8.4-8.4-8.4h-37.7c-4.6,0-8.4,3.8-8.4,8.4v32.3c0,4.6,3.8,8.4,8.4,8.4
							h37.7c4.6,0,8.4-3.8,8.4-8.4V215.8z M371.2,278.2c0-4.6-3.8-8.4-8.4-8.4h-46.7c-4.6,0-8.4,3.8-8.4,8.4v49.7
							c0,4.6,3.8,8.4,8.4,8.4h46.7c4.6,0,8.4-3.8,8.4-8.4V278.2z M319.8,530.3H359v-81.8h-39.2V530.3z M302.9,420.2
							c0,4.6,3.8,8.4,8.4,8.4h56.2c4.6,0,8.4-3.8,8.4-8.4v-61c0-4.6-3.8-8.4-8.4-8.4h-56.2c-4.6,0-8.4,3.8-8.4,8.4V420.2z"/>
						<rect x="319.8" y="448.4" class="st6" width="39.2" height="81.8"/>
						<polygon class="st7" points="296.7,336.4 296.7,256.5 301.8,256.5 301.8,194.2 306.8,194.2 306.8,128.6 318,128.6 318,134.3
							360.9,134.3 360.9,128.6 372.1,128.6 372.1,194.2 377.1,194.2 377.1,256.5 382.2,256.5 382.2,336.4 387.2,336.4 387.2,549.5
							291.7,549.5 291.7,336.4 						"/>
						<g>
							<g>
								<path class="st1" d="M319.8,490.4c-0.2,0-0.5-0.1-0.7-0.3c-0.4-0.4-0.4-1,0-1.4l39.2-40.9c0.4-0.4,1-0.4,1.4,0s0.4,1,0,1.4
									L320.6,490C320.4,490.2,320.1,490.4,319.8,490.4z"/>
							</g>
							<g>
								<path class="st1" d="M359.1,490.4c-0.3,0-0.5-0.1-0.7-0.3l-39.2-40.9c-0.4-0.4-0.4-1,0-1.4s1-0.4,1.4,0l39.2,40.9
									c0.4,0.4,0.4,1,0,1.4C359.6,490.3,359.3,490.4,359.1,490.4z"/>
							</g>
							<g>
								<path class="st1" d="M359.1,490.4h-39.2c-0.6,0-1-0.4-1-1s0.4-1,1-1h39.2c0.6,0,1,0.4,1,1
									C360.1,489.9,359.6,490.4,359.1,490.4z"/>
							</g>
							<g>
								<path class="st1" d="M359.1,531.3c-0.3,0-0.5-0.1-0.7-0.3l-39.3-41c-0.4-0.4-0.4-1,0-1.4s1-0.4,1.4,0l39.2,40.9
									c0.4,0.4,0.4,1,0,1.4C359.6,531.2,359.3,531.3,359.1,531.3z"/>
							</g>
							<g>
								<path class="st1" d="M319.8,531.3c-0.2,0-0.5-0.1-0.7-0.3c-0.4-0.4-0.4-1,0-1.4l39.2-40.9c0.4-0.4,1-0.4,1.4,0s0.4,1,0,1.4
									L320.5,531C320.4,531.2,320.1,531.3,319.8,531.3z"/>
							</g>
						</g>
						<rect x="283.2" y="549.5" class="st8" width="112.5" height="22.5"/>
						<g>
							<path class="st6" d="M317,153.4c0-4.6,3.8-8.4,8.4-8.4h28.1c4.6,0,8.4,3.8,8.4,8.4v32.3c0,4.6-3.8,8.4-8.4,8.4h-28.1
								c-4.6,0-8.4-3.8-8.4-8.4V153.4z"/>
							<path class="st6" d="M317,153.4c0-4.6,3.8-8.4,8.4-8.4h28.1c4.6,0,8.4,3.8,8.4,8.4v32.3c0,4.6-3.8,8.4-8.4,8.4h-28.1
								c-4.6,0-8.4-3.8-8.4-8.4V153.4z"/>
						</g>
						<g>
							<path class="st6" d="M312.2,215.8c0-4.6,3.8-8.4,8.4-8.4h37.7c4.6,0,8.4,3.8,8.4,8.4v32.3c0,4.6-3.8,8.4-8.4,8.4h-37.7
								c-4.6,0-8.4-3.8-8.4-8.4V215.8z"/>
							<path class="st6" d="M312.2,215.8c0-4.6,3.8-8.4,8.4-8.4h37.7c4.6,0,8.4,3.8,8.4,8.4v32.3c0,4.6-3.8,8.4-8.4,8.4h-37.7
								c-4.6,0-8.4-3.8-8.4-8.4V215.8z"/>
						</g>
						<g>
							<path class="st6" d="M307.7,278.2c0-4.6,3.8-8.4,8.4-8.4h46.7c4.6,0,8.4,3.8,8.4,8.4v49.7c0,4.6-3.8,8.4-8.4,8.4h-46.7
								c-4.6,0-8.4-3.8-8.4-8.4V278.2z"/>
							<path class="st6" d="M307.7,278.2c0-4.6,3.8-8.4,8.4-8.4h46.7c4.6,0,8.4,3.8,8.4,8.4v49.7c0,4.6-3.8,8.4-8.4,8.4h-46.7
								c-4.6,0-8.4-3.8-8.4-8.4V278.2z"/>
						</g>
						<g>
							<path class="st6" d="M302.9,359.2c0-4.6,3.8-8.4,8.4-8.4h56.2c4.6,0,8.4,3.8,8.4,8.4v61c0,4.6-3.8,8.4-8.4,8.4h-56.2
								c-4.6,0-8.4-3.8-8.4-8.4V359.2z"/>
							<path class="st6" d="M302.9,359.2c0-4.6,3.8-8.4,8.4-8.4h56.2c4.6,0,8.4,3.8,8.4,8.4v61c0,4.6-3.8,8.4-8.4,8.4h-56.2
								c-4.6,0-8.4-3.8-8.4-8.4V359.2z"/>
						</g>
					</g>
					<g>
						<g>
							<path class="st1" d="M-49.1,382.9c-0.6,0-1.2-0.4-1.4-1c-0.3-0.8,0.2-1.6,1-1.9C80,338.7,171.3,272.7,224.9,224.6
								c58.1-52.1,86-94.9,86.3-95.3c0.4-0.7,1.4-0.9,2.1-0.4c0.7,0.4,0.9,1.4,0.4,2.1c-0.3,0.4-28.3,43.6-86.8,95.9
								c-34.3,30.7-72.2,58.6-112.7,82.8C63.6,339.9,8.8,364.5-48.6,382.8C-48.8,382.9-48.9,382.9-49.1,382.9z"/>
						</g>
						<g>
							<g>
								<path class="st1" d="M277.3,412.2c-0.3,0-0.5-0.2-0.5-0.5V174.4c0-0.3,0.2-0.5,0.5-0.5s0.5,0.2,0.5,0.5v237.3
									C277.8,412,277.6,412.2,277.3,412.2z"/>
							</g>
							<g>
								<path class="st1" d="M255.4,409.7c-0.3,0-0.5-0.2-0.5-0.5V197.7c0-0.3,0.2-0.5,0.5-0.5s0.5,0.2,0.5,0.5v211.4
									C255.9,409.4,255.6,409.7,255.4,409.7z"/>
							</g>
							<g>
								<path class="st1" d="M233.4,407.2c-0.3,0-0.5-0.2-0.5-0.5V218.9c0-0.3,0.2-0.5,0.5-0.5s0.5,0.2,0.5,0.5v187.8
									C233.9,407,233.7,407.2,233.4,407.2z"/>
							</g>
							<g>
								<path class="st1" d="M211.5,404.8c-0.3,0-0.5-0.2-0.5-0.5v-166c0-0.3,0.2-0.5,0.5-0.5s0.5,0.2,0.5,0.5v166
									C212,404.6,211.8,404.8,211.5,404.8z"/>
							</g>
							<g>
								<path class="st1" d="M189.6,402.5c-0.3,0-0.5-0.2-0.5-0.5V256.1c0-0.3,0.2-0.5,0.5-0.5s0.5,0.2,0.5,0.5V402
									C190.1,402.2,189.9,402.5,189.6,402.5z"/>
							</g>
							<g>
								<path class="st1" d="M167.7,400.2c-0.3,0-0.5-0.2-0.5-0.5V272.6c0-0.3,0.2-0.5,0.5-0.5s0.5,0.2,0.5,0.5v127.1
									C168.2,400,167.9,400.2,167.7,400.2z"/>
							</g>
							<g>
								<path class="st1" d="M145.7,398.1c-0.3,0-0.5-0.2-0.5-0.5V287.9c0-0.3,0.2-0.5,0.5-0.5s0.5,0.2,0.5,0.5v109.7
									C146.2,397.8,146,398.1,145.7,398.1z"/>
							</g>
							<g>
								<path class="st1" d="M123.8,395.9c-0.3,0-0.5-0.2-0.5-0.5V302c0-0.3,0.2-0.5,0.5-0.5s0.5,0.2,0.5,0.5v93.4
									C124.3,395.7,124.1,395.9,123.8,395.9z"/>
							</g>
							<g>
								<path class="st1" d="M101.9,394c-0.3,0-0.5-0.2-0.5-0.5v-78.3c0-0.3,0.2-0.5,0.5-0.5s0.5,0.2,0.5,0.5v78.3
									C102.4,393.7,102.1,394,101.9,394z"/>
							</g>
							<g>
								<path class="st1" d="M79.9,392c-0.3,0-0.5-0.2-0.5-0.5v-64.3c0-0.3,0.2-0.5,0.5-0.5s0.5,0.2,0.5,0.5v64.3
									C80.4,391.8,80.2,392,79.9,392z"/>
							</g>
							<g>
								<path class="st1" d="M58,390.1c-0.3,0-0.5-0.2-0.5-0.5v-51.2c0-0.3,0.2-0.5,0.5-0.5s0.5,0.2,0.5,0.5v51.2
									C58.5,389.9,58.3,390.1,58,390.1z"/>
							</g>
							<g>
								<path class="st1" d="M36.1,388.3c-0.3,0-0.5-0.2-0.5-0.5v-39.1c0-0.3,0.2-0.5,0.5-0.5s0.5,0.2,0.5,0.5v39.1
									C36.6,388.1,36.4,388.3,36.1,388.3z"/>
							</g>
						</g>
						<g>
							<path class="st1" d="M52.7,390.7c-0.7,0-1.3-0.5-1.5-1.1c-0.2-0.8,0.3-1.6,1.1-1.8c101.2-26,180.8-94.8,229.8-148
								c53.1-57.7,82.7-109.9,83-110.4c0.4-0.7,1.3-1,2-0.6s1,1.3,0.6,2c-0.3,0.5-30,53-83.4,110.9c-31.3,34-64.6,63.3-98.9,86.9
								c-42.9,29.6-87.4,50.4-132.5,62C52.9,390.7,52.8,390.7,52.7,390.7z"/>
						</g>
					</g>
				</g>
				<path class="st8" d="M-276.4,414.9c0,0,714.8,1,1066.3,101.2l-48.4-16.9C392.3,391-274,369-274,369L-276.4,414.9z"/>
			</g>
		</g>
	</g>
	<g>
		<g>
			<defs>
				<rect id="SVGID_3_" y="7" width="800" height="587.1"/>
			</defs>
			<clipPath id="SVGID_4_">
				<use xlink:href="#SVGID_3_"  style="overflow:visible;"/>
			</clipPath>
			<g class="st9">
				<g>
					<path class="st1" d="M571.8,103.3c-0.8,0-1.5-0.7-1.5-1.5c0-24.9,20.3-45.2,45.2-45.2c21.4,0,40,15.2,44.3,36.1
						c0.2,0.8-0.4,1.6-1.2,1.8c-0.8,0.2-1.6-0.4-1.8-1.2c-4-19.5-21.4-33.7-41.4-33.7c-23.3,0-42.2,18.9-42.2,42.2
						C573.3,102.7,572.6,103.3,571.8,103.3z"/>
				</g>
				<g>
					<path class="st1" d="M701,162.4c-0.8,0-1.5-0.7-1.5-1.5s0.7-1.5,1.5-1.5c11.8,0,21.5-9.6,21.5-21.5s-9.6-21.5-21.5-21.5
						c-4.3,0-8.5,1.3-12.1,3.7c-0.4,0.3-1,0.3-1.5,0.1c-0.5-0.2-0.8-0.7-0.9-1.2c-1.8-13.3-13.2-23.3-26.6-23.3
						c-14.8,0-26.9,12.1-26.9,26.9c0,0.8-0.7,1.5-1.5,1.5s-1.5-0.7-1.5-1.5c0-16.5,13.4-29.9,29.9-29.9c14.2,0,26.3,10,29.2,23.7
						c3.6-2,7.6-3,11.8-3c13.5,0,24.5,11,24.5,24.5S714.5,162.4,701,162.4z"/>
				</g>
				<g>
					<path class="st1" d="M571.8,103.3h-48.6c-0.8,0-1.5-0.7-1.5-1.5s0.7-1.5,1.5-1.5h48.6c0.8,0,1.5,0.7,1.5,1.5
						C573.3,102.7,572.6,103.3,571.8,103.3z"/>
				</g>
				<g>
					<path class="st1" d="M472.7,162.4h-8.4c-0.8,0-1.5-0.7-1.5-1.5s0.7-1.5,1.5-1.5h8.4c0.8,0,1.5,0.7,1.5,1.5
						S473.5,162.4,472.7,162.4z"/>
				</g>
				<g>
					<path class="st1" d="M498.7,162.4h-14.2c-0.8,0-1.5-0.7-1.5-1.5s0.7-1.5,1.5-1.5h14.2c0.8,0,1.5,0.7,1.5,1.5
						S499.6,162.4,498.7,162.4z"/>
				</g>
				<g>
					<path class="st1" d="M625.5,162.4H513.7c-0.8,0-1.5-0.7-1.5-1.5s0.7-1.5,1.5-1.5h111.8c0.8,0,1.5,0.7,1.5,1.5
						S626.3,162.4,625.5,162.4z"/>
				</g>
				<g>
					<path class="st1" d="M701,162.4h-64.3c-0.8,0-1.5-0.7-1.5-1.5s0.7-1.5,1.5-1.5H701c0.8,0,1.5,0.7,1.5,1.5
						S701.8,162.4,701,162.4z"/>
				</g>
			</g>
		</g>
	</g>
	<g>
		<g>
			<defs>
				<rect id="SVGID_5_" y="7" width="800" height="587.1"/>
			</defs>
			<clipPath id="SVGID_6_">
				<use xlink:href="#SVGID_5_"  style="overflow:visible;"/>
			</clipPath>
			<g class="st10">
				<path class="st11" d="M822.8,430.6V708H-0.5V270c4.9-2.4,10.4-3.7,16.1-3.7c20.4,0,37,16.6,37,37c0,2.5-0.2,4.9-0.7,7.2
					c12.5-5.1,26.1-7.9,40.4-7.9c58.1,0,105.3,46.4,106.7,104.1c9.5-10.4,23.2-16.9,38.4-16.9c20.7,0,38.6,12.1,47.1,29.6
					c7.7-32.1,36.5-56,71-56c37.8,0,68.9,28.7,72.6,65.6c6.5-10.6,18.2-17.6,31.5-17.6c20.4,0,37,16.5,37,37c0,1.1-0.1,2.2-0.2,3.3
					c14.3-14.3,34.1-23.1,55.9-23.1c34.1,0,63.1,21.6,74.2,51.8c7.4-14.3,22.3-24,39.5-24c15.7,0,29.4,8.1,37.4,20.3
					c-0.4-2.8-0.6-5.5-0.6-8.4c0-36.3,29.5-65.8,65.8-65.8C791.2,402.4,810.9,413.5,822.8,430.6z"/>
				<g>
					<path class="st11" d="M284.6,419.4c7.7-32.1,36.6-56,71-56c37.8,0,68.9,28.7,72.7,65.6L284.6,419.4z"/>
					<path class="st1" d="M428.3,430.4c-0.8,0-1.4-0.6-1.5-1.3c-3.7-36.6-34.3-64.2-71.2-64.2c-33.3,0-61.9,22.6-69.6,54.9
						c-0.2,0.8-1,1.3-1.8,1.1c-0.8-0.2-1.3-1-1.1-1.8c8-33.7,37.8-57.2,72.5-57.2c38.4,0,70.3,28.8,74.1,66.9
						c0.1,0.8-0.5,1.6-1.3,1.6C428.4,430.4,428.3,430.4,428.3,430.4z"/>
				</g>
				<g>
					<path class="st1" d="M199.1,408.2c-0.8,0-1.5-0.6-1.5-1.5C196.2,350.1,149,304,92.4,304c-13.8,0-27.2,2.6-39.9,7.8
						c-0.5,0.2-1.1,0.1-1.5-0.2c-0.4-0.4-0.6-0.9-0.5-1.4c0.4-2.3,0.7-4.6,0.7-6.9c0-19.6-15.9-35.5-35.5-35.5s-35.5,15.9-35.5,35.5
						c0,0.8-0.7,1.5-1.5,1.5s-1.5-0.7-1.5-1.5c0-21.2,17.3-38.5,38.5-38.5s38.5,17.3,38.5,38.5c0,1.6-0.1,3.2-0.3,4.8
						c12.3-4.7,25.3-7.1,38.5-7.1c28.5,0,55.3,10.9,75.7,30.8c20.3,19.8,31.9,46.4,32.6,74.7C200.6,407.5,200,408.2,199.1,408.2
						L199.1,408.2z"/>
				</g>
				<g>
					<path class="st1" d="M478.1,481.8c-0.2,0-0.3,0-0.5-0.1c-0.8-0.3-1.2-1.1-0.9-1.9c11.6-31.6,42-52.8,75.7-52.8
						c32.6,0,62.1,19.9,74.5,49.8c8.4-13.7,23.1-22,39.3-22c15.6,0,30.1,7.8,38.6,21c0.5,0.7,0.3,1.6-0.4,2.1s-1.6,0.3-2.1-0.4
						c-8-12.3-21.5-19.6-36.1-19.6c-16.1,0-30.7,8.9-38.2,23.2c-0.3,0.5-0.8,0.8-1.4,0.8c-0.6,0-1.1-0.4-1.3-1
						c-11.2-30.4-40.4-50.8-72.8-50.8c-32.4,0-61.7,20.4-72.9,50.9C479.3,481.4,478.7,481.8,478.1,481.8z"/>
				</g>
				<g>
					<path class="st1" d="M289.7,443.5c-0.8,0-1.5-0.7-1.5-1.5c0-28-22.7-50.7-50.7-50.7c-18.5,0-35.6,10.1-44.5,26.3
						c-0.4,0.7-1.3,1-2,0.6s-1-1.3-0.6-2c9.4-17.2,27.5-27.9,47.1-27.9c29.6,0,53.7,24.1,53.7,53.7
						C291.2,442.9,290.5,443.5,289.7,443.5z"/>
				</g>
				<g>
					<path class="st11" d="M188.9,422.9c0.8-2.1,1.7-4,2.8-6L188.9,422.9z"/>
					<path class="st1" d="M188.9,424.4c-0.2,0-0.4,0-0.5-0.1c-0.8-0.3-1.1-1.2-0.8-1.9c0.8-2.1,1.8-4.2,2.9-6.1c0.4-0.7,1.3-1,2-0.6
						s1,1.3,0.6,2c-1,1.9-1.9,3.8-2.7,5.8C190.1,424.1,189.5,424.4,188.9,424.4z"/>
				</g>
				<g>
					<path class="st1" d="M706,489.5c-0.6,0-1.2-0.4-1.4-1c-2.1-6.5-3.1-13.3-3.1-20.2c0-37.1,30.2-67.3,67.3-67.3
						s67.3,30.2,67.3,67.3c0,0.8-0.7,1.5-1.5,1.5s-1.5-0.7-1.5-1.5c0-35.5-28.8-64.3-64.3-64.3s-64.3,28.8-64.3,64.3
						c0,6.6,1,13.1,3,19.3c0.2,0.8-0.2,1.6-1,1.9C706.3,489.4,706.2,489.5,706,489.5z"/>
				</g>
				<g>
					<path class="st11" d="M425.5,434.3c5.5-13.5,18.8-22.9,34.2-22.9c20.4,0,37,16.5,37,37c0,1.1,0,2.2-0.1,3.3L425.5,434.3z"/>
					<path class="st1" d="M496.5,453.1h-0.1c-0.8-0.1-1.4-0.8-1.4-1.6c0.1-1,0.1-2.1,0.1-3.2c0-19.5-15.9-35.5-35.5-35.5
						c-14.5,0-27.3,8.6-32.8,22c-0.3,0.8-1.2,1.1-2,0.8c-0.8-0.3-1.1-1.2-0.8-2c5.9-14.5,19.9-23.9,35.6-23.9
						c21.2,0,38.5,17.2,38.5,38.5c0,1.1-0.1,2.3-0.2,3.4C498,452.5,497.3,453.1,496.5,453.1z"/>
				</g>
				<g>
					<path class="st1" d="M454.9,556.3c-0.3,0-0.5-0.1-0.8-0.2c-12.4-7.7-19.8-21.1-19.8-35.7c0-23.2,18.8-42,42-42s42,18.8,42,42
						c0,0.8-0.7,1.5-1.5,1.5s-1.5-0.7-1.5-1.5c0-21.5-17.5-39-39-39s-39,17.5-39,39c0,13.6,6.9,25.9,18.4,33.1
						c0.7,0.4,0.9,1.4,0.5,2.1C455.9,556.1,455.4,556.3,454.9,556.3z"/>
				</g>
				<g>
					<path class="st1" d="M454.9,556.3h-60.1c-0.8,0-1.5-0.7-1.5-1.5s0.7-1.5,1.5-1.5h60.1c0.8,0,1.5,0.7,1.5,1.5
						C456.4,555.7,455.8,556.3,454.9,556.3z"/>
				</g>
				<g>
					<path class="st1" d="M387.5,556.3h-2.6c-0.8,0-1.5-0.7-1.5-1.5s0.7-1.5,1.5-1.5h2.6c0.8,0,1.5,0.7,1.5,1.5
						C389,555.7,388.3,556.3,387.5,556.3z"/>
				</g>
				<g>
					<path class="st1" d="M314.6,501.3c-0.2,0-0.5-0.1-0.7-0.2c-0.7-0.4-1-1.3-0.6-2c5.5-10.6,5.7-22.8,0.7-33.6
						c-8.9-19-31.6-27.3-50.6-18.5c-4.7,2.2-8.8,5.2-12.2,9c-0.6,0.6-1.5,0.7-2.1,0.1s-0.7-1.5-0.1-2.1c3.7-4.1,8.1-7.3,13.1-9.7
						c20.5-9.6,45-0.6,54.6,19.9c5.4,11.6,5.1,24.8-0.8,36.2C315.6,501,315.1,501.3,314.6,501.3z"/>
				</g>
				<g>
					<path class="st1" d="M607.1,484.3c-0.5,0-1-0.2-1.3-0.7c-8.3-12.8-21-22.1-35.7-26.1c-0.8-0.2-1.3-1-1.1-1.8s1-1.3,1.8-1.1
						c15.4,4.2,28.7,13.9,37.4,27.4c0.5,0.7,0.3,1.6-0.4,2.1C607.7,484.3,607.4,484.3,607.1,484.3z"/>
				</g>
				<g>
					<path class="st1" d="M318.1,406.1c-0.3,0-0.6-0.1-0.8-0.3c-0.7-0.5-0.9-1.4-0.4-2.1c5.9-8.7,14-15.5,23.6-19.7
						c0.8-0.3,1.6,0,2,0.8c0.3,0.8,0,1.6-0.8,2c-9,4-16.8,10.4-22.3,18.6C319.1,405.9,318.6,406.1,318.1,406.1z"/>
				</g>
				<g>
					<path class="st1" d="M718,536.5c-0.5,0-0.9-0.2-1.2-0.6c-0.5-0.7-0.4-1.6,0.3-2.1c6.4-4.7,10.1-12.2,10.1-20.1
						c0-13.8-11.2-25-25-25c-10.7,0-20.2,6.8-23.7,16.9c-0.3,0.8-1.1,1.2-1.9,0.9c-0.8-0.3-1.2-1.1-0.9-1.9
						c3.9-11.3,14.5-19,26.5-19c15.4,0,28,12.6,28,28c0,8.8-4.2,17.3-11.4,22.5C718.7,536.4,718.3,536.5,718,536.5z"/>
				</g>
			</g>
		</g>
	</g>
	<g>
		<g id="cloud-1">
			<defs>
				<rect id="SVGID_7_" y="7" width="800" height="587.1"/>
			</defs>
			<clipPath id="SVGID_8_">
				<use xlink:href="#SVGID_7_"  style="overflow:visible;"/>
			</clipPath>
			<path id="cloud1-fill" class="st12" d="M193.1,128.8c13.2,0,23.9-10.4,24.4-23.5c0.5-13.5-10.8-25.2-24.3-25.2
				c-4.8,0-9.4,1.4-13.2,3.8c-7.2-15.6-23.4-26.2-42-25c-21.6,1.4-39.1,19-40.2,40.7c-0.7,12.8,4.2,24.4,12.4,32.7h67.3
				c4.8,0,9.7-0.9,14-3.1C192.1,128.9,192.6,128.8,193.1,128.8z"/>
			<g id="cloud1-stroke" class="st13">
				<g>
					<path class="st1" d="M109.6,133.7c-0.4,0-0.8-0.1-1.1-0.4c-8.5-8.5-13.2-19.8-13.2-31.8c0-24.8,20.2-44.9,44.9-44.9
						c17.6,0,33.7,10.4,40.9,26.4c0.3,0.8,0,1.6-0.7,2c-0.8,0.3-1.6,0-2-0.7c-6.8-15-21.8-24.6-38.2-24.6
						c-23.1,0-41.9,18.8-41.9,41.9c0,11.2,4.4,21.7,12.3,29.6c0.6,0.6,0.6,1.5,0,2.1C110.3,133.6,109.9,133.7,109.6,133.7z"/>
				</g>
				<g>
					<path class="st1" d="M192.9,130c-0.8,0-1.5-0.7-1.5-1.5s0.7-1.5,1.5-1.5c12.6,0,22.8-10.2,22.8-22.8s-10.2-22.8-22.8-22.8
						s-22.8,10.2-22.8,22.8c0,0.8-0.7,1.5-1.5,1.5s-1.5-0.7-1.5-1.5c0-14.2,11.6-25.8,25.8-25.8s25.8,11.6,25.8,25.8
						S207.1,130,192.9,130z"/>
				</g>
				<g>
					<path class="st1" d="M109.6,133.7H52.7c-0.8,0-1.5-0.7-1.5-1.5s0.7-1.5,1.5-1.5h56.9c0.8,0,1.5,0.7,1.5,1.5
						S110.4,133.7,109.6,133.7z"/>
				</g>
				<g>
					<path class="st1" d="M129.6,133.7h-12.1c-0.8,0-1.5-0.7-1.5-1.5s0.7-1.5,1.5-1.5h12.1c0.8,0,1.5,0.7,1.5,1.5
						C131.1,133.1,130.4,133.7,129.6,133.7z"/>
				</g>
				<g>
					<path class="st1" d="M135.6,133.7c-0.4,0-0.8-0.2-1.1-0.4c-0.1-0.1-0.1-0.1-0.2-0.2c-0.1-0.1-0.1-0.2-0.1-0.3s-0.1-0.2-0.1-0.3
						s0-0.2,0-0.3c0-0.4,0.2-0.8,0.4-1.1c0.6-0.6,1.6-0.6,2.1,0c0.3,0.3,0.4,0.7,0.4,1.1c0,0.1,0,0.2,0,0.3s-0.1,0.2-0.1,0.3
						s-0.1,0.2-0.1,0.3c-0.1,0.1-0.1,0.2-0.2,0.2C136.3,133.6,136,133.7,135.6,133.7z"/>
				</g>
			</g>
		</g>
	</g>
</g>
</svg>
