<?xml version="1.0" standalone="no"?>
<!DOCTYPE svg PUBLIC "-//W3C//DTD SVG 20010904//EN"
 "http://www.w3.org/TR/2001/REC-SVG-20010904/DTD/svg10.dtd">
<svg version="1.0" xmlns="http://www.w3.org/2000/svg"
 width="1163.000000pt" height="1163.000000pt" viewBox="0 0 1163.000000 1163.000000"
 preserveAspectRatio="xMidYMid meet">
<metadata>
Created by potrace 1.11, written by Peter Selinger 2001-2013
</metadata>
<g transform="translate(0.000000,1163.000000) scale(0.100000,-0.100000)"
fill="#000000" stroke="none">
<path d="M5927 10814 c-1 -1 -67 -5 -147 -8 -80 -4 -161 -8 -180 -11 -19 -2
-60 -6 -90 -10 -53 -5 -240 -32 -290 -40 -25 -5 -33 -6 -130 -26 -30 -6 -91
-20 -135 -31 -44 -11 -88 -21 -97 -23 -31 -7 -173 -47 -233 -67 -33 -10 -67
-21 -75 -23 -8 -2 -73 -24 -145 -50 -366 -133 -722 -313 -1015 -514 -52 -36
-99 -69 -105 -73 -5 -5 -46 -36 -91 -71 -217 -167 -275 -220 -349 -323 -146
-201 -179 -502 -83 -762 11 -31 27 -64 34 -73 8 -8 14 -19 14 -24 0 -16 90
-132 137 -176 134 -126 278 -165 468 -129 142 28 357 119 489 208 26 18 51 32
55 32 4 0 16 9 26 20 10 11 21 20 26 20 4 0 69 39 146 88 163 102 143 90 353
210 498 283 793 389 1187 428 119 11 395 6 473 -10 8 -1 38 -6 65 -10 254 -39
497 -157 661 -320 128 -129 201 -270 240 -466 13 -66 13 -363 0 -425 -4 -16
-11 -55 -17 -85 -27 -134 -94 -307 -177 -453 -41 -71 -165 -252 -265 -387 -92
-124 -166 -216 -451 -564 -303 -370 -562 -757 -711 -1060 -54 -111 -117 -269
-130 -326 -2 -8 -15 -58 -29 -110 -23 -86 -57 -261 -70 -365 -26 -196 -27
-541 -3 -640 3 -11 8 -33 12 -50 31 -123 145 -264 258 -320 96 -46 142 -55
272 -51 170 6 285 54 388 164 52 56 110 173 126 252 62 314 53 274 81 365 71
227 176 427 339 645 30 41 58 77 61 80 3 3 34 41 70 85 119 147 267 316 435
495 38 41 81 86 95 101 14 14 99 102 190 195 141 144 269 281 430 459 29 33
120 141 218 260 32 38 198 260 244 325 205 292 332 602 383 940 4 25 9 54 11
65 19 96 26 456 12 590 -85 809 -629 1461 -1506 1806 -104 40 -253 91 -312
105 -8 2 -49 12 -90 23 -71 18 -221 50 -265 57 -23 3 -243 32 -297 39 -76 9
-504 25 -511 19z"/>
<path d="M5605 2888 c-49 -11 -95 -20 -102 -22 -7 -1 -16 -5 -19 -9 -4 -4 -15
-7 -25 -7 -32 0 -199 -91 -272 -149 -196 -156 -317 -347 -372 -586 -20 -90
-28 -340 -13 -431 31 -184 114 -376 213 -490 223 -259 484 -376 823 -369 128
3 177 9 292 40 80 21 217 90 301 152 197 145 358 394 395 610 2 13 7 35 10 50
10 49 13 286 3 343 -5 30 -11 69 -13 85 -19 115 -96 287 -181 399 -160 213
-376 345 -640 391 -91 16 -308 12 -400 -7z"/>
</g>
</svg>
